<svg width="100" height="100" viewBox="0 0 100 100" xmlns="http://www.w3.org/2000/svg">
  <defs>
    <linearGradient id="hatGradient" x1="0%" y1="0%" x2="100%" y2="100%">
      <stop offset="0%" style="stop-color:#8B4513;stop-opacity:1" />
      <stop offset="100%" style="stop-color:#654321;stop-opacity:1" />
    </linearGradient>
    <linearGradient id="robeGradient" x1="0%" y1="0%" x2="100%" y2="100%">
      <stop offset="0%" style="stop-color:#8B0000;stop-opacity:1" />
      <stop offset="100%" style="stop-color:#A0522D;stop-opacity:1" />
    </linearGradient>
  </defs>
  
  <!-- 背景圆形 -->
  <circle cx="50" cy="50" r="50" fill="#DAA520"/>
  
  <!-- 长袍 -->
  <path d="M25 70 Q30 60 50 65 Q70 60 75 70 L75 90 L25 90 Z" fill="url(#robeGradient)"/>
  
  <!-- 脸部 -->
  <ellipse cx="50" cy="45" rx="18" ry="22" fill="#FDBCB4"/>
  
  <!-- 帽子 -->
  <path d="M35 20 Q40 10 50 15 Q60 10 65 20 Q65 30 60 35 Q40 35 35 30 Z" fill="url(#hatGradient)"/>
  
  <!-- 长胡须 -->
  <path d="M40 50 Q45 70 50 65 Q55 70 60 50 Q55 75 50 70 Q45 75 40 50" fill="#D2B48C"/>
  
  <!-- 眼睛 -->
  <circle cx="45" cy="40" r="3" fill="#000"/>
  <circle cx="55" cy="40" r="3" fill="#000"/>
  
  <!-- 鼻子 -->
  <ellipse cx="50" cy="47" rx="2" ry="3" fill="#E8A87C"/>
  
  <!-- 嘴巴 -->
  <path d="M47 52 Q50 55 53 52" fill="none" stroke="#000" stroke-width="1.5"/>
  
  <!-- 画笔 -->
  <line x1="70" y1="30" x2="85" y2="20" stroke="#8B4513" stroke-width="3"/>
  <circle cx="85" cy="20" r="2" fill="#000"/>
  
  <!-- 调色板 -->
  <circle cx="20" y="30" r="8" fill="#F5F5DC" stroke="#8B4513" stroke-width="2"/>
  <circle cx="18" y="28" r="1.5" fill="#FF0000"/>
  <circle cx="22" y="28" r="1.5" fill="#00FF00"/>
  <circle cx="20" y="32" r="1.5" fill="#0000FF"/>
</svg>
