<svg width="100" height="100" viewBox="0 0 100 100" xmlns="http://www.w3.org/2000/svg">
  <defs>
    <linearGradient id="doraemonGrad" x1="0%" y1="0%" x2="100%" y2="100%">
      <stop offset="0%" style="stop-color:#00BFFF;stop-opacity:1" />
      <stop offset="100%" style="stop-color:#1E90FF;stop-opacity:1" />
    </linearGradient>
  </defs>
  
  <!-- 背景圆形 -->
  <circle cx="50" cy="50" r="50" fill="url(#doraemonGrad)"/>
  
  <!-- 脸部 -->
  <circle cx="50" cy="50" r="35" fill="#00BFFF"/>
  
  <!-- 白色肚子 -->
  <ellipse cx="50" cy="60" rx="20" ry="25" fill="#FFFFFF"/>
  
  <!-- 眼睛 -->
  <ellipse cx="42" cy="40" rx="8" ry="12" fill="#FFFFFF"/>
  <ellipse cx="58" cy="40" rx="8" ry="12" fill="#FFFFFF"/>
  <ellipse cx="44" cy="38" rx="4" ry="6" fill="#000000"/>
  <ellipse cx="56" cy="38" rx="4" ry="6" fill="#000000"/>
  <ellipse cx="45" cy="36" rx="1" ry="2" fill="#FFFFFF"/>
  <ellipse cx="57" cy="36" rx="1" ry="2" fill="#FFFFFF"/>
  
  <!-- 鼻子 -->
  <circle cx="50" cy="50" r="3" fill="#FF0000"/>
  
  <!-- 嘴巴 -->
  <path d="M 35 65 Q 50 75 65 65" stroke="#000000" stroke-width="3" fill="none"/>
  
  <!-- 胡须 -->
  <line x1="25" y1="55" x2="35" y2="55" stroke="#000000" stroke-width="2"/>
  <line x1="25" y1="60" x2="35" y2="60" stroke="#000000" stroke-width="2"/>
  <line x1="25" y1="65" x2="35" y2="65" stroke="#000000" stroke-width="2"/>
  <line x1="65" y1="55" x2="75" y2="55" stroke="#000000" stroke-width="2"/>
  <line x1="65" y1="60" x2="75" y2="60" stroke="#000000" stroke-width="2"/>
  <line x1="65" y1="65" x2="75" y2="65" stroke="#000000" stroke-width="2"/>
  
  <!-- 铃铛 -->
  <circle cx="50" cy="75" r="4" fill="#FFD700"/>
  <rect x="48" y="75" width="4" height="3" fill="#8B4513"/>
</svg>
