<svg width="100" height="100" viewBox="0 0 100 100" xmlns="http://www.w3.org/2000/svg">
  <defs>
    <linearGradient id="hairGradient2" x1="0%" y1="0%" x2="100%" y2="100%">
      <stop offset="0%" style="stop-color:#F5DEB3;stop-opacity:1" />
      <stop offset="100%" style="stop-color:#D2B48C;stop-opacity:1" />
    </linearGradient>
    <linearGradient id="sweaterGradient" x1="0%" y1="0%" x2="100%" y2="100%">
      <stop offset="0%" style="stop-color:#4169E1;stop-opacity:1" />
      <stop offset="100%" style="stop-color:#0000CD;stop-opacity:1" />
    </linearGradient>
  </defs>
  
  <!-- 背景圆形 -->
  <circle cx="50" cy="50" r="50" fill="#2E8B57"/>
  
  <!-- 毛衣 -->
  <path d="M25 70 Q30 60 50 65 Q70 60 75 70 L75 90 L25 90 Z" fill="url(#sweaterGradient)"/>
  
  <!-- 脸部 -->
  <ellipse cx="50" cy="45" rx="18" ry="22" fill="#FDBCB4"/>
  
  <!-- 蓬松的头发 -->
  <path d="M30 25 Q35 10 50 15 Q65 10 70 25 Q70 40 65 45 Q35 45 30 40 Z" fill="url(#hairGradient2)"/>
  
  <!-- 胡须 -->
  <path d="M42 50 Q45 65 50 60 Q55 65 58 50 Q55 70 50 65 Q45 70 42 50" fill="url(#hairGradient2)"/>
  
  <!-- 眼睛 -->
  <circle cx="45" cy="40" r="3" fill="#000"/>
  <circle cx="55" cy="40" r="3" fill="#000"/>
  
  <!-- 鼻子 -->
  <ellipse cx="50" cy="47" rx="2" ry="3" fill="#E8A87C"/>
  
  <!-- 嘴巴 -->
  <path d="M47 52 Q50 55 53 52" fill="none" stroke="#000" stroke-width="1.5"/>
  
  <!-- 公式符号 -->
  <text x="20" y="85" font-family="Arial" font-size="8" fill="#FFD700">E=mc²</text>
</svg>
