<svg width="100" height="100" viewBox="0 0 100 100" xmlns="http://www.w3.org/2000/svg">
  <defs>
    <linearGradient id="muskGrad" x1="0%" y1="0%" x2="100%" y2="100%">
      <stop offset="0%" style="stop-color:#4169E1;stop-opacity:1" />
      <stop offset="100%" style="stop-color:#0000CD;stop-opacity:1" />
    </linearGradient>
  </defs>
  
  <!-- 背景圆形 -->
  <circle cx="50" cy="50" r="50" fill="url(#muskGrad)"/>
  
  <!-- 脸部 -->
  <circle cx="50" cy="50" r="30" fill="#F4C2A1"/>
  
  <!-- 眼睛 -->
  <circle cx="42" cy="45" r="3" fill="#000000"/>
  <circle cx="58" cy="45" r="3" fill="#000000"/>
  
  <!-- 鼻子 -->
  <ellipse cx="50" cy="55" rx="2" ry="3" fill="#E6A085"/>
  
  <!-- 嘴巴 -->
  <path d="M 45 65 Q 50 70 55 65" stroke="#000000" stroke-width="2" fill="none"/>
  
  <!-- 胡须 -->
  <path d="M 40 70 Q 45 75 50 70" stroke="#FFFFFF" stroke-width="2" fill="none"/>
  <path d="M 50 70 Q 55 75 60 70" stroke="#FFFFFF" stroke-width="2" fill="none"/>
  
  <!-- 西装 -->
  <rect x="30" y="75" width="40" height="15" fill="#000000"/>
  <rect x="35" y="75" width="30" height="8" fill="#FFFFFF"/>
  
  <!-- 火箭 -->
  <rect x="75" y="20" width="8" height="30" fill="#C0C0C0"/>
  <polygon points="75,20 79,10 83,20" fill="#FF0000"/>
  <rect x="77" y="50" width="4" height="8" fill="#FFD700"/>
</svg>
