<svg width="100" height="100" viewBox="0 0 100 100" xmlns="http://www.w3.org/2000/svg">
  <defs>
    <linearGradient id="narutoGrad" x1="0%" y1="0%" x2="100%" y2="100%">
      <stop offset="0%" style="stop-color:#FFD700;stop-opacity:1" />
      <stop offset="100%" style="stop-color:#FFA500;stop-opacity:1" />
    </linearGradient>
  </defs>
  
  <!-- 背景圆形 -->
  <circle cx="50" cy="50" r="50" fill="url(#narutoGrad)"/>
  
  <!-- 头发 -->
  <path d="M 20 35 Q 30 20 40 30 Q 50 15 60 30 Q 70 20 80 35 L 75 50 L 25 50 Z" fill="#FFD700"/>
  
  <!-- 护额 -->
  <rect x="30" y="40" width="40" height="8" fill="#C0C0C0"/>
  <rect x="45" y="35" width="10" height="13" fill="#C0C0C0"/>
  
  <!-- 脸部 -->
  <circle cx="50" cy="55" r="25" fill="#FFE4B5"/>
  
  <!-- 胡须 -->
  <ellipse cx="35" cy="60" rx="8" ry="3" fill="#FFD700"/>
  <ellipse cx="65" cy="60" rx="8" ry="3" fill="#FFD700"/>
  <ellipse cx="35" cy="70" rx="8" ry="3" fill="#FFD700"/>
  <ellipse cx="65" cy="70" rx="8" ry="3" fill="#FFD700"/>
  
  <!-- 眼睛 -->
  <ellipse cx="42" cy="50" rx="3" ry="5" fill="#000000"/>
  <ellipse cx="58" cy="50" rx="3" ry="5" fill="#000000"/>
  <ellipse cx="43" cy="48" rx="1" ry="2" fill="#FFFFFF"/>
  <ellipse cx="57" cy="48" rx="1" ry="2" fill="#FFFFFF"/>
  
  <!-- 鼻子 -->
  <ellipse cx="50" cy="58" rx="1" ry="2" fill="#E6A085"/>
  
  <!-- 嘴巴 -->
  <path d="M 45 65 Q 50 70 55 65" stroke="#000000" stroke-width="2" fill="none"/>
</svg>
