<svg width="100" height="100" viewBox="0 0 100 100" xmlns="http://www.w3.org/2000/svg">
  <defs>
    <linearGradient id="beardGradient" x1="0%" y1="0%" x2="100%" y2="100%">
      <stop offset="0%" style="stop-color:#D2B48C;stop-opacity:1" />
      <stop offset="100%" style="stop-color:#8B7355;stop-opacity:1" />
    </linearGradient>
    <linearGradient id="togaGradient" x1="0%" y1="0%" x2="100%" y2="100%">
      <stop offset="0%" style="stop-color:#F5F5DC;stop-opacity:1" />
      <stop offset="100%" style="stop-color:#E6E6FA;stop-opacity:1" />
    </linearGradient>
  </defs>
  
  <!-- 背景圆形 -->
  <circle cx="50" cy="50" r="50" fill="#8B4513"/>
  
  <!-- 托加袍 -->
  <path d="M20 70 Q30 60 50 65 Q70 60 80 70 L80 90 L20 90 Z" fill="url(#togaGradient)"/>
  
  <!-- 脸部 -->
  <ellipse cx="50" cy="45" rx="18" ry="22" fill="#FDBCB4"/>
  
  <!-- 头发 -->
  <path d="M32 25 Q35 15 50 20 Q65 15 68 25 Q68 35 65 40 Q35 40 32 35 Z" fill="#8B4513"/>
  
  <!-- 胡须 -->
  <path d="M40 50 Q45 60 50 55 Q55 60 60 50 Q55 65 50 60 Q45 65 40 50" fill="url(#beardGradient)"/>
  
  <!-- 眼睛 -->
  <circle cx="45" cy="40" r="3" fill="#000"/>
  <circle cx="55" cy="40" r="3" fill="#000"/>
  
  <!-- 鼻子 -->
  <ellipse cx="50" cy="47" rx="2" ry="3" fill="#E8A87C"/>
  
  <!-- 嘴巴 -->
  <path d="M47 52 Q50 55 53 52" fill="none" stroke="#000" stroke-width="1.5"/>
  
  <!-- 哲学卷轴 -->
  <rect x="15" y="75" width="20" height="3" fill="#8B4513" rx="1"/>
  <rect x="15" y="80" width="20" height="3" fill="#8B4513" rx="1"/>
  <rect x="15" y="85" width="20" height="3" fill="#8B4513" rx="1"/>
</svg>
