<svg width="100" height="100" viewBox="0 0 100 100" xmlns="http://www.w3.org/2000/svg">
  <defs>
    <linearGradient id="wukongGrad" x1="0%" y1="0%" x2="100%" y2="100%">
      <stop offset="0%" style="stop-color:#FFD700;stop-opacity:1" />
      <stop offset="100%" style="stop-color:#FFA500;stop-opacity:1" />
    </linearGradient>
  </defs>
  
  <!-- 背景圆形 -->
  <circle cx="50" cy="50" r="50" fill="url(#wukongGrad)"/>
  
  <!-- 金箍棒 -->
  <rect x="85" y="20" width="8" height="60" fill="#FFD700"/>
  <rect x="83" y="18" width="12" height="4" fill="#FFD700"/>
  <rect x="83" y="78" width="12" height="4" fill="#FFD700"/>
  
  <!-- 脸部 -->
  <circle cx="50" cy="50" r="30" fill="#FFE4B5"/>
  
  <!-- 猴毛 -->
  <path d="M 20 30 Q 25 20 30 30" stroke="#8B4513" stroke-width="3" fill="none"/>
  <path d="M 70 30 Q 75 20 80 30" stroke="#8B4513" stroke-width="3" fill="none"/>
  
  <!-- 眼睛 -->
  <circle cx="42" cy="45" r="4" fill="#000000"/>
  <circle cx="58" cy="45" r="4" fill="#000000"/>
  <circle cx="44" cy="43" r="1" fill="#FFFFFF"/>
  <circle cx="60" cy="43" r="1" fill="#FFFFFF"/>
  
  <!-- 鼻子 -->
  <ellipse cx="50" cy="55" rx="2" ry="3" fill="#FFB6C1"/>
  
  <!-- 嘴巴 -->
  <path d="M 45 65 Q 50 70 55 65" stroke="#000000" stroke-width="2" fill="none"/>
  
  <!-- 耳朵 -->
  <ellipse cx="30" cy="40" rx="8" ry="12" fill="#FFE4B5"/>
  <ellipse cx="70" cy="40" rx="8" ry="12" fill="#FFE4B5"/>
</svg>
