<svg width="100" height="100" viewBox="0 0 100 100" xmlns="http://www.w3.org/2000/svg">
  <defs>
    <linearGradient id="zhugeGrad" x1="0%" y1="0%" x2="100%" y2="100%">
      <stop offset="0%" style="stop-color:#4169E1;stop-opacity:1" />
      <stop offset="100%" style="stop-color:#0000CD;stop-opacity:1" />
    </linearGradient>
  </defs>
  
  <!-- 背景圆形 -->
  <circle cx="50" cy="50" r="50" fill="url(#zhugeGrad)"/>
  
  <!-- 帽子 -->
  <path d="M 20 25 L 80 25 L 75 45 L 25 45 Z" fill="#000000"/>
  <rect x="25" y="45" width="50" height="8" fill="#000000"/>
  
  <!-- 脸部 -->
  <circle cx="50" cy="60" r="25" fill="#F4C2A1"/>
  
  <!-- 胡须 -->
  <path d="M 40 70 Q 45 75 50 70" stroke="#FFFFFF" stroke-width="3" fill="none"/>
  <path d="M 50 70 Q 55 75 60 70" stroke="#FFFFFF" stroke-width="3" fill="none"/>
  
  <!-- 眼睛 -->
  <circle cx="42" cy="55" r="3" fill="#000000"/>
  <circle cx="58" cy="55" r="3" fill="#000000"/>
  
  <!-- 鼻子 -->
  <ellipse cx="50" cy="65" rx="2" ry="3" fill="#E6A085"/>
  
  <!-- 嘴巴 -->
  <path d="M 45 75 Q 50 80 55 75" stroke="#000000" stroke-width="2" fill="none"/>
  
  <!-- 羽扇 -->
  <ellipse cx="75" y="30" rx="8" ry="15" fill="#FFFFFF" stroke="#000000" stroke-width="1"/>
  <line x1="75" y1="15" x2="75" y2="45" stroke="#8B4513" stroke-width="3"/>
</svg>
